<?xml version="1.0" encoding="UTF-8"?>
<svg id="_Слой_2" data-name="Слой 2" xmlns="http://www.w3.org/2000/svg" xmlns:xlink="http://www.w3.org/1999/xlink" viewBox="0 0 175.59 29.15">
  <defs>
    <style>
      .cls-1 {
        fill: #931c1c;
      }

      .cls-2 {
        clip-path: url(#clippath-4);
      }

      .cls-2, .cls-3, .cls-4, .cls-5, .cls-6, .cls-7, .cls-8, .cls-9 {
        fill: none;
      }

      .cls-3 {
        clip-path: url(#clippath-2);
      }

      .cls-10 {
        fill: #831919;
      }

      .cls-11 {
        fill: #801919;
      }

      .cls-12 {
        fill: #76f5ff;
      }

      .cls-13 {
        fill: #841919;
      }

      .cls-4 {
        clip-path: url(#clippath-5);
      }

      .cls-5 {
        isolation: isolate;
      }

      .cls-6 {
        clip-path: url(#clippath-3);
      }

      .cls-14 {
        fill: #bf2525;
      }

      .cls-15 {
        fill: #f22e2e;
      }

      .cls-16 {
        fill: #821919;
      }

      .cls-8 {
        clip-path: url(#clippath);
      }

      .cls-9 {
        clip-path: url(#clippath-1);
      }

      .cls-17 {
        fill: #ff3131;
      }

      .cls-18 {
        fill: #911c1c;
      }
    </style>
    <clipPath id="clippath">
      <path class="cls-7" d="m11.35,24.69l-1.74-2.99c2.89-.02,4.96-1.77,6.47-4.44l1.74,2.99c-1.51,2.67-3.58,4.42-6.47,4.44Z"/>
    </clipPath>
    <clipPath id="clippath-1">
      <path class="cls-7" d="m8.58,23.77l-1.74-2.99c.36.61,1.14.93,2.44.92l1.74,2.99c-1.3,0-2.09-.31-2.44-.92Z"/>
    </clipPath>
    <clipPath id="clippath-2">
      <path class="cls-7" d="m21.26,5.77l1.74,2.99c.51.87-.04,2.43-1.25,4.56l-1.74-2.99c1.2-2.13,1.75-3.69,1.25-4.56Z"/>
    </clipPath>
    <clipPath id="clippath-3">
      <path class="cls-7" d="m2.22,26.96l-1.74-2.99c-1.11-1.91-.31-5.14,2.4-9.94l1.74,2.99c-2.71,4.79-3.52,8.02-2.4,9.94Z"/>
    </clipPath>
    <clipPath id="clippath-4">
      <path class="cls-7" d="m27.89,2.63l1.74,2.99c-.86-1.49-3.11-2.13-6.62-2.11l-1.74-2.99c3.51-.02,5.75.63,6.62,2.11Z"/>
    </clipPath>
    <clipPath id="clippath-5">
      <path class="cls-7" d="m5.34,15.76l-1.74-2.99C8.47,4.17,13.82.56,21.28.52l1.74,2.99c-7.46.04-12.81,3.65-17.68,12.25Z"/>
    </clipPath>
  </defs>
  <g id="_0" data-name="0">
    <g id="_2" data-name="2">
      <g>
        <g class="cls-5">
          <polygon class="cls-15" points="11.02 24.69 9.29 21.7 9.61 21.7 11.35 24.69 11.02 24.69"/>
          <polygon class="cls-15" points="17.82 20.25 16.09 17.26 22.03 17.23 23.77 20.22 17.82 20.25"/>
          <g class="cls-5">
            <g class="cls-8">
              <g class="cls-5">
                <path class="cls-17" d="m11.35,24.69l-1.74-2.99c1.05,0,1.99-.24,2.83-.66l1.74,2.99c-.84.42-1.78.66-2.83.66h0Z"/>
                <path class="cls-14" d="m14.18,24.03l-1.74-2.99c1.49-.74,2.68-2.07,3.64-3.78l1.74,2.99c-.96,1.7-2.15,3.03-3.64,3.78h0Z"/>
              </g>
            </g>
          </g>
          <g class="cls-5">
            <g class="cls-9">
              <g class="cls-5">
                <path class="cls-14" d="m8.58,23.77l-1.74-2.99c.05.08.1.15.16.22l1.74,2.99c-.06-.07-.11-.14-.16-.22h0Z"/>
                <path class="cls-17" d="m8.74,23.99l-1.74-2.99c.41.47,1.15.71,2.29.7l1.74,2.99c-1.14,0-1.88-.23-2.29-.7h0Z"/>
              </g>
            </g>
          </g>
          <g class="cls-5">
            <g class="cls-3">
              <g class="cls-5">
                <path class="cls-14" d="m21.75,13.32l-1.74-2.99c1.2-2.13,1.75-3.69,1.25-4.56l1.74,2.99c.51.87-.04,2.43-1.25,4.56h0Z"/>
              </g>
            </g>
          </g>
          <g class="cls-5">
            <g class="cls-6">
              <g class="cls-5">
                <path class="cls-14" d="m2.22,26.96l-1.74-2.99c-1.11-1.91-.31-5.14,2.4-9.94l1.74,2.99c-2.71,4.79-3.52,8.02-2.4,9.94h0Z"/>
              </g>
            </g>
          </g>
          <polygon class="cls-10" points="4.63 17.02 2.89 14.03 3.6 12.77 5.34 15.76 4.63 17.02"/>
          <g class="cls-5">
            <g class="cls-2">
              <g class="cls-5">
                <path class="cls-17" d="m23.01,3.51l-1.74-2.99c3.15-.02,5.28.5,6.31,1.68l1.74,2.99c-1.03-1.18-3.16-1.7-6.31-1.68h0Z"/>
                <path class="cls-14" d="m29.32,5.19l-1.74-2.99c.12.13.22.28.31.43l1.74,2.99c-.09-.15-.19-.3-.31-.43h0Z"/>
              </g>
            </g>
          </g>
          <g class="cls-5">
            <g class="cls-4">
              <g class="cls-5">
                <path class="cls-14" d="m5.34,15.76l-1.74-2.99C6.57,7.51,9.73,4.12,13.43,2.27l1.74,2.99c-3.7,1.85-6.86,5.24-9.83,10.5h0Z"/>
                <path class="cls-17" d="m15.17,5.26l-1.74-2.99c2.36-1.18,4.94-1.74,7.85-1.75l1.74,2.99c-2.9.02-5.49.57-7.85,1.75h0Z"/>
              </g>
            </g>
          </g>
        </g>
        <g class="cls-5">
          <polygon class="cls-10" points="30 28.62 28.26 25.63 42.32 .8 44.05 3.79 30 28.62"/>
          <polygon class="cls-15" points="44.05 3.79 42.32 .8 48.26 .77 50 3.76 44.05 3.79"/>
        </g>
        <g class="cls-5">
          <polygon class="cls-16" points="68.4 19 66.66 16.01 69.3 11.02 71.04 14.01 68.4 19"/>
          <polygon class="cls-11" points="62.25 28.44 60.51 25.45 59.97 10.1 61.71 13.09 62.25 28.44"/>
          <polygon class="cls-10" points="71.04 14.01 69.3 11.02 75.19 .62 76.93 3.61 71.04 14.01"/>
          <polygon class="cls-15" points="76.93 3.61 75.19 .62 80.85 .58 82.59 3.57 76.93 3.61"/>
          <polygon class="cls-15" points="61.62 3.69 59.88 .7 66.15 .67 67.89 3.66 61.62 3.69"/>
          <polygon class="cls-10" points="47.57 28.52 45.83 25.53 59.88 .7 61.62 3.69 47.57 28.52"/>
        </g>
        <g class="cls-5">
          <polygon class="cls-15" points="88.48 23.85 86.75 20.86 98.32 20.79 100.06 23.78 88.48 23.85"/>
          <polygon class="cls-15" points="94.39 13.4 92.66 10.41 102.38 10.36 104.12 13.35 94.39 13.4"/>
          <polygon class="cls-10" points="80 28.34 78.26 25.35 92.32 .52 94.06 3.51 80 28.34"/>
          <polygon class="cls-15" points="94.06 3.51 92.32 .52 109.85 .42 111.59 3.41 94.06 3.51"/>
        </g>
        <g class="cls-5">
          <polygon class="cls-10" points="130.3 28.05 128.56 25.06 134.74 14.14 136.48 17.13 130.3 28.05"/>
          <polygon class="cls-13" points="136.7 17.21 134.98 14.26 137.92 9.34 139.64 12.3 136.7 17.21"/>
          <polygon class="cls-1" points="127.38 19.16 125.65 16.17 139.75 .25 141.49 3.24 127.38 19.16"/>
          <polygon class="cls-15" points="141.49 3.24 139.75 .25 148.57 .2 150.31 3.19 141.49 3.24"/>
          <polygon class="cls-11" points="119.27 28.11 117.54 25.12 121.43 9.26 123.17 12.25 119.27 28.11"/>
          <polygon class="cls-15" points="122.46 3.35 120.72 .36 129.49 .31 131.23 3.3 122.46 3.35"/>
          <polygon class="cls-10" points="108.4 28.17 106.67 25.18 120.72 .36 122.46 3.35 108.4 28.17"/>
        </g>
        <g class="cls-5">
          <polygon class="cls-11" points="162.3 27.87 160.56 24.88 162.2 19.53 163.94 22.53 162.3 27.87"/>
          <polygon class="cls-15" points="160.58 18.1 158.84 15.11 163.55 15.09 165.28 18.08 160.58 18.1"/>
          <polygon class="cls-11" points="165.28 18.08 163.55 15.09 166.37 5.97 168.11 8.96 165.28 18.08"/>
          <polygon class="cls-15" points="167.39 3.04 165.65 .05 173.85 0 175.59 2.99 167.39 3.04"/>
          <polygon class="cls-18" points="146.14 27.96 144.41 24.97 165.65 .05 167.39 3.04 146.14 27.96"/>
        </g>
      </g>
      <path class="cls-12" d="m23.01,3.51c6.79-.04,8.84,2.42,5.33,8.62l-.65,1.15-5.94.03c1.93-3.41,2.18-5.37-.93-5.35h-.33c-3.83.02-6.3,2.79-9.12,7.76l-.71,1.26c-2.81,4.97-3.47,7.73.36,7.71h.33c2.89-.02,4.96-1.77,6.47-4.44l5.94-.03-.16.28c-3.46,6.11-8.32,8.61-15.1,8.65-7.46.04-8.74-3.53-3.88-12.13l.71-1.26C10.21,7.16,15.55,3.55,23.01,3.51Zm21.04.29l-14.05,24.83,5.94-.03L50,3.76l-5.94.03Zm32.87-.19l-5.89,10.4-2.64,5-.51-15.35-6.27.04-14.05,24.83,5.61-.03,5.89-10.4,2.64-5,.54,15.35,6.29-.04,14.05-24.83-5.66.03Zm17.13-.1l-14.05,24.83,17.53-.1,2.52-4.46-11.57.07,3.39-5.99,9.73-.06,2.52-4.46-9.73.06,3.1-5.47,11.57-.07,2.52-4.46-17.53.1Zm47.63-.15l-14.11,15.92,3.85-15.86-8.77.05-14.05,24.83,5.96-.03,6.18-10.92,2.63-4.97-3.89,15.86,6.07-.03,14.11-15.92-2.97,4.97-6.18,10.92,5.96-.03,14.05-24.83-8.82.05Zm25.7-.32l-21.25,24.92,6.38-.04,4.39-5.36,7.02-.04-1.64,5.34,6.37-.04,6.92-24.84-8.2.05Zm-6.81,15.07l7.53-9.14-2.82,9.12-4.71.03h0Z"/>
    </g>
  </g>
</svg>